<?xml version="1.0" standalone="no"?>
<!DOCTYPE svg PUBLIC "-//W3C//DTD SVG 20010904//EN"
 "http://www.w3.org/TR/2001/REC-SVG-20010904/DTD/svg10.dtd">
<svg version="1.0" xmlns="http://www.w3.org/2000/svg"
 width="480.000000pt" height="480.000000pt" viewBox="0 0 480.000000 480.000000"
 preserveAspectRatio="xMidYMid meet">
<metadata>
Created by potrace 1.14, written by Peter Selinger 2001-2017
</metadata>
<g transform="translate(0.000000,480.000000) scale(0.100000,-0.100000)"
fill="#000000" stroke="none">
<path d="M2175 4562 l-220 -218 -307 1 -308 1 -1 -41 c0 -22 -1 -162 -1 -311
l-1 -272 -218 -218 -219 -219 219 -220 219 -220 0 -295 c0 -162 1 -302 1 -310
1 -14 40 -16 311 -16 l311 0 219 -219 220 -220 223 221 222 220 308 -1 307 -1
0 311 0 310 215 215 c118 118 215 219 215 225 0 6 -97 107 -215 225 l-215 215
-2 310 -3 310 -308 0 -307 1 -218 217 c-119 119 -219 217 -222 217 -3 0 -104
-98 -225 -218z"/>
<path d="M1471 1419 c-98 -49 -154 -138 -153 -244 0 -103 52 -190 144 -241 46
-25 63 -29 133 -29 98 0 161 28 207 92 33 45 57 133 49 174 l-6 26 -126 1
-125 2 1 -38 1 -37 84 -1 c77 0 85 -2 88 -20 4 -30 -38 -85 -82 -108 -95 -48
-215 -9 -265 87 -71 138 36 304 189 292 18 -2 55 -13 81 -26 l49 -22 20 23
c26 30 26 32 -12 55 -55 33 -90 43 -154 44 -49 1 -73 -5 -123 -30z"/>
<path d="M3042 1170 l0 -260 38 0 38 0 0 260 0 260 -38 0 -37 0 -1 -260z"/>
<path d="M2028 1250 c-121 -21 -182 -167 -114 -270 74 -112 248 -103 306 16
38 78 13 183 -54 227 -34 23 -94 34 -138 27z m107 -100 c60 -66 13 -180 -74
-180 -40 0 -89 43 -97 85 -19 102 103 170 171 95z"/>
<path d="M2407 1248 c-132 -28 -182 -192 -89 -292 104 -111 294 -45 306 105
10 123 -96 214 -217 187z m101 -78 c9 0 42 -69 42 -87 0 -38 -32 -91 -61 -104
-69 -28 -139 21 -139 98 0 70 61 120 124 102 17 -5 32 -9 34 -9z"/>
<path d="M2795 1250 c-147 -31 -189 -225 -68 -317 43 -33 121 -43 157 -19 33
21 36 21 36 -10 0 -86 -97 -126 -158 -64 -27 27 -32 28 -61 17 -17 -6 -31 -15
-31 -19 0 -4 17 -25 38 -46 86 -86 230 -61 274 47 10 24 19 372 11 396 -5 15
-66 12 -71 -3 -3 -10 -9 -10 -25 1 -29 18 -65 24 -102 17z m100 -90 c49 -41
36 -153 -22 -179 -53 -24 -104 -5 -128 49 -46 101 68 198 150 130z"/>
<path d="M3268 1244 c-124 -38 -156 -208 -56 -301 51 -48 138 -57 202 -20 54
30 66 52 41 71 -27 21 -42 20 -67 -4 -31 -28 -89 -27 -124 4 l-28 23 50 22
c27 12 81 36 121 52 79 33 80 37 36 97 -43 58 -104 77 -175 56z m81 -65 c17
-6 31 -17 31 -23 0 -11 -120 -66 -144 -66 -4 0 -5 12 -1 27 6 26 30 49 65 65
8 4 15 7 16 7 1 1 15 -4 33 -10z"/>
<path d="M3053 482 c-26 -20 -43 -61 -43 -104 0 -25 -3 -29 -20 -25 -20 5 -33
-6 -36 -30 -1 -8 9 -13 27 -13 l29 0 0 -150 0 -150 30 0 30 0 0 150 0 150 36
0 c31 0 35 3 32 23 -2 18 -9 22 -35 20 -30 -1 -33 1 -33 28 0 49 16 69 55 69
31 0 35 3 35 25 0 23 -4 25 -42 25 -25 0 -52 -8 -65 -18z"/>
<path d="M4370 408 l0 -91 -21 19 c-30 27 -106 28 -143 1 -91 -65 -84 -267 12
-319 32 -17 94 -14 126 7 22 14 26 15 26 3 0 -10 11 -15 30 -16 l29 -1 -2 242
-2 242 -27 2 -28 2 0 -91z m-26 -119 c24 -19 26 -26 26 -100 0 -91 -8 -113
-47 -126 -71 -24 -123 28 -123 122 0 104 75 159 144 104z"/>
<path d="M114 469 c-38 -11 -82 -54 -91 -87 -3 -14 -2 -41 3 -61 11 -43 47
-69 147 -107 87 -32 93 -37 100 -72 7 -36 -8 -61 -45 -77 -61 -25 -146 5 -158
56 -6 25 -36 34 -61 19 -9 -6 -7 -17 8 -47 70 -136 331 -101 317 44 -6 67 -44
99 -163 138 -63 21 -91 45 -91 81 0 84 160 97 188 14 9 -25 16 -30 43 -30 24
0 30 3 25 16 -3 9 -6 19 -6 24 0 16 -53 72 -76 81 -38 14 -107 18 -140 8z"/>
<path d="M3489 471 c-83 -27 -129 -106 -129 -223 0 -89 13 -138 47 -178 36
-43 77 -62 134 -62 86 1 151 48 165 121 6 29 5 31 -23 31 -24 0 -31 -6 -42
-35 -16 -44 -48 -66 -98 -67 -79 -1 -114 47 -121 164 -5 85 12 151 47 182 25
23 84 31 119 17 28 -12 62 -57 62 -83 0 -9 11 -14 31 -14 29 0 30 1 25 30 -7
36 -32 72 -67 98 -28 21 -111 31 -150 19z"/>
<path d="M640 351 l-26 -6 1 -113 c0 -62 -3 -122 -7 -133 -10 -26 -64 -48 -97
-40 -41 11 -50 42 -48 173 l2 118 -31 0 -31 0 2 -128 c1 -135 11 -178 46 -201
29 -18 100 -16 138 3 27 15 31 15 31 1 0 -9 9 -15 25 -15 19 0 25 5 26 23 2
113 2 318 -2 320 -2 2 -15 1 -29 -2z"/>
<path d="M870 352 c-8 -2 -23 -11 -32 -20 -16 -14 -18 -13 -18 1 0 12 -9 17
-30 17 l-30 0 0 -168 0 -168 30 -2 30 -2 0 129 c0 121 2 132 22 151 28 26 82
26 108 0 18 -18 20 -33 20 -150 l0 -130 30 0 30 0 0 124 c0 110 2 126 21 150
26 33 79 36 109 6 18 -18 20 -33 20 -150 l0 -130 30 0 30 0 -2 143 c-3 161
-10 181 -70 199 -43 13 -94 4 -128 -22 -25 -19 -25 -19 -47 2 -22 21 -89 32
-123 20z"/>
<path d="M1327 346 c-1 -6 -3 -83 -2 -171 l1 -160 29 0 30 0 0 127 c0 142 5
154 66 164 25 4 41 1 59 -14 23 -19 24 -24 25 -151 l0 -131 28 0 c19 0 27 5
28 18 1 9 2 62 4 117 3 125 1 117 25 143 24 26 75 29 105 6 18 -13 20 -27 21
-147 l1 -132 29 0 29 0 0 120 c1 66 -4 135 -9 154 -21 69 -112 92 -181 45 -37
-25 -38 -25 -51 -5 -23 32 -95 38 -145 12 -31 -16 -40 -18 -36 -8 4 11 -3 16
-23 19 -16 3 -31 0 -33 -6z"/>
<path d="M1959 339 c-20 -12 -44 -34 -53 -50 -20 -35 -31 -114 -22 -163 13
-67 81 -122 149 -119 9 0 27 1 40 2 12 1 38 14 57 31 34 29 34 30 16 45 -17
13 -22 12 -47 -10 -22 -18 -37 -23 -66 -19 -44 5 -93 51 -93 88 0 22 2 23 98
22 134 -2 134 -2 128 48 -10 91 -47 134 -122 142 -39 4 -57 0 -85 -17z m106
-35 c17 -7 45 -54 45 -77 0 -11 -18 -14 -82 -12 -81 1 -83 1 -80 25 6 52 64
84 117 64z"/>
<path d="M2237 346 c-1 -6 -3 -83 -3 -171 l1 -160 28 -3 c15 -2 27 0 28 5 0 4
1 60 2 124 2 135 14 159 74 159 32 0 34 2 31 28 -3 24 -7 27 -36 25 -18 0 -42
-9 -52 -18 -17 -15 -18 -15 -22 1 -3 19 -45 27 -51 10z"/>
<path d="M2685 344 c-86 -49 -113 -172 -57 -268 37 -64 122 -86 194 -52 51 24
78 71 83 144 5 68 -21 132 -67 165 -36 27 -114 32 -153 11z m128 -60 c31 -31
42 -77 33 -138 -15 -98 -122 -126 -170 -44 -34 56 -16 170 31 197 33 19 79 13
106 -15z"/>
<path d="M3865 346 c-88 -41 -122 -174 -68 -267 40 -67 137 -92 206 -52 91 54
104 213 24 291 -40 39 -113 51 -162 28z m106 -46 c61 -33 67 -192 8 -228 -50
-32 -98 -20 -129 30 -21 35 -26 100 -11 141 22 57 83 83 132 57z"/>
<path d="M4610 353 c-84 -32 -125 -133 -95 -238 20 -72 67 -106 146 -107 33 0
60 7 83 21 41 26 49 42 27 57 -12 9 -21 8 -40 -7 -40 -28 -72 -31 -111 -12
-24 12 -39 29 -46 53 -7 19 -10 38 -8 41 2 3 53 6 114 5 l110 -1 0 45 c0 58
-27 108 -71 132 -33 18 -79 22 -109 11z m93 -61 c24 -27 39 -72 24 -73 -49 -5
-159 -4 -162 1 -6 10 23 63 42 78 24 18 77 15 96 -6z"/>
</g>
</svg>
